# xmcd
#
# Track frame offsets: 
#        150
#        20847
#        36117
#        59710
#        79262
#        101270
#        120915
#        168712
#
# Disc length: 2592 seconds
#
# Revision: 8
# Processed by: cddbd v1.5.2PL0 Copyright (c) Steve Scherf et al.
# Submitted via: ExactAudioCopy v0.99pb5
#
DISCID=650a1e08
DTITLE=Van Morrison - Hard Nose The Highway
DYEAR=1973
DGENRE=Blues
TTITLE0=Snow in San Anselmo
TTITLE1=Warm Love
TTITLE2=Hard Nose the Highway
TTITLE3=Wild Children
TTITLE4=The Great Deception
TTITLE5=Bein' Green
TTITLE6=Autumn Song
TTITLE7=Purple Heather
EXTD=
EXTT0=
EXTT1=
EXTT2=
EXTT3=
EXTT4=
EXTT5=
EXTT6=
EXTT7=
PLAYORDER=
